# xmcd CD database file generated by Grip 3.0.7
# 
# Track frame offsets:
#       150
#       13942
#       23679
#       43430
#       64939
#       81604
#       97831
#       123943
#       144233
#       167936
#       190104
#       214329
# 
# Disc length: 3030 seconds
# 
# Revision: 1
# Processed by: cddbd v1.5.1PL0 Copyright (c) Steve Scherf et al.
# Submitted via: Grip 3.0.7
# 
DISCID=ab0bd40c
DTITLE=Mandino Reinhardt - Digo O Dives
DYEAR=2004
DGENRE=Jazz
TTITLE0=Choukar Gaiga
TTITLE1=Garsik
TTITLE2=Porto Cabello
TTITLE3=Blue Drag
TTITLE4=The Gypsy
TTITLE5=Stompin' at Decca
TTITLE6=Pas Encore
TTITLE7=Kambelem
TTITLE8=Laura
TTITLE9=Swing Guitar
TTITLE10=Davido
TTITLE11=Digo O Dives
EXTD=YEAR: 2004
EXTT0=
EXTT1=
EXTT2=
EXTT3=
EXTT4=
EXTT5=
EXTT6=
EXTT7=
EXTT8=
EXTT9=
EXTT10=
EXTT11=
PLAYORDER=
